<svg width="65" height="65" viewBox="0 0 65 65" fill="none" xmlns="http://www.w3.org/2000/svg">
<path d="M32.5 0C14.5507 0 0 14.5507 0 32.5C0 50.4493 14.5507 65 32.5 65C50.4493 65 65 50.4493 65 32.5C65 14.5507 50.4493 0 32.5 0ZM16.1191 13.7308L21.9034 15.5478C22.6691 15.7993 23.1792 16.5104 23.2681 17.2378L23.5934 20.4235L49.7855 23.3474C50.9101 23.5652 51.7004 24.5807 51.5429 25.6246L49.9164 34.7889C49.7093 35.7475 48.9154 36.4046 48.0319 36.4155H24.7638L24.3076 39.0141H46.4053C47.5608 39.0548 48.4072 39.9346 48.4207 40.962C48.3728 42.1341 47.4281 42.9012 46.4053 42.9139H21.9669C20.7342 42.812 19.8293 41.8352 20.0189 40.6407L21.0583 34.9198L19.4317 18.9279L14.9487 17.4997C14.4287 17.3264 14.0384 17.0004 13.7784 16.5237C13.2864 15.4928 13.7459 14.3514 14.6234 13.8577C15.1243 13.5974 15.6134 13.5649 16.1191 13.7308ZM24.9265 44.0368C26.6092 44.0368 27.9733 45.401 27.9733 47.0837C27.9733 48.7664 26.6092 50.1306 24.9265 50.1306C23.2438 50.1306 21.8796 48.7664 21.8796 47.0837C21.8796 45.401 23.2437 44.0368 24.9265 44.0368ZM42.811 44.0368C44.4936 44.0368 45.8578 45.401 45.8578 47.0837C45.8578 48.7664 44.4936 50.1306 42.811 50.1306C41.1283 50.1306 39.7641 48.7664 39.7641 47.0837C39.7641 45.401 41.1283 44.0368 42.811 44.0368Z" fill="#55A38C" fill-opacity="0.7"/>
</svg>
