<svg width="69" height="72" viewBox="0 0 69 72" fill="none" xmlns="http://www.w3.org/2000/svg">
<path d="M32.8728 3.49019C33.2367 3.17407 33.7025 3 34.1845 3C34.6665 3 35.1323 3.17407 35.4961 3.49019L41.9895 9.13019C42.1917 9.30603 42.4273 9.43942 42.6821 9.52245C42.9369 9.60548 43.2058 9.63645 43.4728 9.61352L52.0461 8.86686C52.5261 8.82563 53.0049 8.95906 53.3944 9.2426C53.7838 9.52614 54.0579 9.94074 54.1661 10.4102L56.1061 18.7902C56.166 19.0521 56.2781 19.2992 56.4356 19.5168C56.5931 19.7344 56.7928 19.9181 57.0228 20.0569L64.3961 24.4902C64.8087 24.7386 65.1178 25.1276 65.2666 25.5856C65.4154 26.0437 65.394 26.54 65.2061 26.9835L61.8461 34.9035C61.7416 35.1503 61.6878 35.4155 61.6878 35.6835C61.6878 35.9515 61.7416 36.2168 61.8461 36.4635L65.2061 44.3835C65.3949 44.8274 65.4168 45.3245 65.268 45.7833C65.1191 46.2421 64.8095 46.6317 64.3961 46.8802L57.0228 51.3135C56.7931 51.4519 56.5936 51.635 56.4361 51.8521C56.2787 52.0691 56.1664 52.3156 56.1061 52.5769L54.1661 60.9569C54.0579 61.4263 53.7838 61.8409 53.3944 62.1245C53.0049 62.408 52.5261 62.5414 52.0461 62.5002L43.4728 61.7535C43.206 61.7301 42.9372 61.7606 42.6824 61.843C42.4276 61.9255 42.192 62.0583 41.9895 62.2335L35.4928 67.8769C35.1289 68.193 34.6631 68.367 34.1811 68.367C33.6991 68.367 33.2333 68.193 32.8695 67.8769L26.3761 62.2335C26.1736 62.0583 25.938 61.9255 25.6832 61.843C25.4284 61.7606 25.1596 61.7301 24.8928 61.7535L16.3195 62.5002C15.8395 62.5414 15.3607 62.408 14.9712 62.1245C14.5818 61.8409 14.3077 61.4263 14.1995 60.9569L12.2595 52.5769C12.1996 52.315 12.0875 52.0679 11.9301 51.8502C11.7726 51.6326 11.5728 51.4489 11.3428 51.3102L3.96948 46.8769C3.55688 46.6284 3.24779 46.2395 3.09898 45.7814C2.95018 45.3234 2.97166 44.827 3.15948 44.3835L6.51947 36.4635C6.62399 36.2168 6.67785 35.9515 6.67785 35.6835C6.67785 35.4155 6.62399 35.1503 6.51947 34.9035L3.15948 26.9835C2.97074 26.5396 2.94877 26.0425 3.09762 25.5837C3.24646 25.1249 3.5561 24.7354 3.96948 24.4869L11.3428 20.0535C11.5725 19.9151 11.772 19.732 11.9295 19.515C12.0869 19.2979 12.1992 19.0515 12.2595 18.7902L14.1995 10.4102C14.3077 9.94074 14.5818 9.52614 14.9712 9.2426C15.3607 8.95906 15.8395 8.82563 16.3195 8.86686L24.8928 9.61352C25.1598 9.63645 25.4287 9.60548 25.6835 9.52245C25.9384 9.43942 26.1739 9.30603 26.3761 9.13019L32.8728 3.49019V3.49019Z" stroke="#55A38C" stroke-opacity="0.7" stroke-width="6"/>
<path d="M24.1828 39.0168L30.8495 45.6835L47.5161 29.0168" stroke="#55A38C" stroke-opacity="0.7" stroke-width="6" stroke-linecap="round" stroke-linejoin="round"/>
</svg>
