<svg width="70" height="70" viewBox="0 0 70 70" fill="none" xmlns="http://www.w3.org/2000/svg">
<path d="M45.5 35C45.5 37.7848 44.3938 40.4555 42.4246 42.4246C40.4555 44.3938 37.7848 45.5 35 45.5C32.2152 45.5 29.5445 44.3938 27.5754 42.4246C25.6063 40.4555 24.5 37.7848 24.5 35C24.5 34.4015 24.563 33.817 24.6715 33.25H21V47.2395C21 48.2125 21.7875 49 22.7605 49H47.243C47.7093 48.9991 48.1562 48.8132 48.4856 48.4832C48.815 48.1531 49 47.7058 49 47.2395V33.25H45.3285C45.437 33.817 45.5 34.4015 45.5 35ZM35 42C35.9195 41.9998 36.8299 41.8185 37.6793 41.4664C38.5287 41.1143 39.3005 40.5984 39.9505 39.948C40.6005 39.2977 41.116 38.5257 41.4677 37.6761C41.8194 36.8265 42.0002 35.916 42 34.9965C41.9998 34.077 41.8184 33.1666 41.4664 32.3172C41.1143 31.4678 40.5983 30.6961 39.948 30.0461C39.2977 29.396 38.5257 28.8805 37.6761 28.5288C36.8265 28.1772 35.916 27.9963 34.9965 27.9965C33.1395 27.997 31.3588 28.7351 30.046 30.0485C28.7333 31.3619 27.996 33.143 27.9965 35C27.997 36.857 28.7351 38.6377 30.0485 39.9505C31.3619 41.2633 33.143 42.0005 35 42ZM43.4 27.65H47.5965C47.8753 27.65 48.1427 27.5395 48.3402 27.3427C48.5377 27.1459 48.6491 26.8788 48.65 26.6V22.4035C48.65 22.1241 48.539 21.8562 48.3414 21.6586C48.1439 21.461 47.8759 21.35 47.5965 21.35H43.4C43.1206 21.35 42.8526 21.461 42.6551 21.6586C42.4575 21.8562 42.3465 22.1241 42.3465 22.4035V26.6C42.35 27.1775 42.8225 27.65 43.4 27.65ZM35 1.40002C26.0887 1.40002 17.5424 4.94001 11.2412 11.2412C4.94 17.5425 1.40001 26.0888 1.40001 35C1.40001 43.9113 4.94 52.4576 11.2412 58.7588C17.5424 65.06 26.0887 68.6 35 68.6C39.4124 68.6 43.7816 67.7309 47.8582 66.0424C51.9347 64.3538 55.6388 61.8789 58.7588 58.7588C61.8789 55.6388 64.3538 51.9347 66.0424 47.8582C67.7309 43.7817 68.6 39.4124 68.6 35C68.6 30.5876 67.7309 26.2184 66.0424 22.1419C64.3538 18.0653 61.8789 14.3613 58.7588 11.2412C55.6388 8.12119 51.9347 5.64623 47.8582 3.95767C43.7816 2.26911 39.4124 1.40002 35 1.40002ZM52.5 48.6115C52.5 50.75 50.75 52.5 48.6115 52.5H21.3885C19.25 52.5 17.5 50.75 17.5 48.6115V21.3885C17.5 19.25 19.25 17.5 21.3885 17.5H48.6115C50.75 17.5 52.5 19.25 52.5 21.3885V48.6115Z" fill="white"/>
</svg>
