<svg width="65" height="65" viewBox="0 0 65 65" fill="none" xmlns="http://www.w3.org/2000/svg">
<circle cx="32.5" cy="32.5" r="32.5" fill="#55A38C" fill-opacity="0.7"/>
<path d="M20.5 48C20.5 48 18 48 18 45.5C18 43 20.5 35.5 33 35.5C45.5 35.5 48 43 48 45.5C48 48 45.5 48 45.5 48H20.5ZM33 33C34.9891 33 36.8968 32.2098 38.3033 30.8033C39.7098 29.3968 40.5 27.4891 40.5 25.5C40.5 23.5109 39.7098 21.6032 38.3033 20.1967C36.8968 18.7902 34.9891 18 33 18C31.0109 18 29.1032 18.7902 27.6967 20.1967C26.2902 21.6032 25.5 23.5109 25.5 25.5C25.5 27.4891 26.2902 29.3968 27.6967 30.8033C29.1032 32.2098 31.0109 33 33 33Z" fill="white"/>
</svg>
