<svg width="65" height="65" viewBox="0 0 65 65" fill="none" xmlns="http://www.w3.org/2000/svg">
<path d="M32.5 0C14.5507 0 0 14.5507 0 32.5C0 50.4493 14.5507 65 32.5 65C50.4493 65 65 50.4493 65 32.5C65 14.5507 50.4493 0 32.5 0ZM32.5 11.0092C41.4475 11.0092 48.7024 18.2641 48.7024 27.2116C48.7024 29.9219 47.9597 33.4999 46.433 35.523L32.5 53.9908L18.5669 35.5231C16.8861 33.2956 16.2976 30.204 16.2976 27.2117C16.2976 18.2641 23.5525 11.0092 32.5 11.0092ZM32.5 20.3958C28.7353 20.3958 25.6842 23.4469 25.6842 27.2116C25.6842 30.9763 28.7353 34.0274 32.5 34.0274C36.2647 34.0274 39.3158 30.9763 39.3158 27.2116C39.3158 23.4469 36.2647 20.3958 32.5 20.3958Z" fill="#55A38C" fill-opacity="0.7"/>
</svg>
