<svg width="75" height="75" viewBox="0 0 75 75" fill="none" xmlns="http://www.w3.org/2000/svg">
<path d="M75 37.5C75 27.5544 71.0491 18.0161 64.0165 10.9835C56.9839 3.95088 47.4456 0 37.5 0C27.5544 0 18.0161 3.95088 10.9835 10.9835C3.95088 18.0161 0 27.5544 0 37.5C0 47.4456 3.95088 56.9839 10.9835 64.0165C18.0161 71.0491 27.5544 75 37.5 75C47.4456 75 56.9839 71.0491 64.0165 64.0165C71.0491 56.9839 75 47.4456 75 37.5ZM39.8438 53.9062C39.8438 54.5279 39.5968 55.124 39.1573 55.5635C38.7177 56.0031 38.1216 56.25 37.5 56.25C36.8784 56.25 36.2823 56.0031 35.8427 55.5635C35.4032 55.124 35.1562 54.5279 35.1562 53.9062V26.7516L25.0969 36.8156C24.6568 37.2557 24.0599 37.503 23.4375 37.503C22.8151 37.503 22.2182 37.2557 21.7781 36.8156C21.338 36.3755 21.0908 35.7786 21.0908 35.1562C21.0908 34.5339 21.338 33.937 21.7781 33.4969L35.8406 19.4344C36.0583 19.2161 36.317 19.0429 36.6017 18.9248C36.8865 18.8066 37.1917 18.7458 37.5 18.7458C37.8083 18.7458 38.1135 18.8066 38.3983 18.9248C38.683 19.0429 38.9417 19.2161 39.1594 19.4344L53.2219 33.4969C53.662 33.937 53.9092 34.5339 53.9092 35.1562C53.9092 35.7786 53.662 36.3755 53.2219 36.8156C52.7818 37.2557 52.1849 37.503 51.5625 37.503C50.9401 37.503 50.3432 37.2557 49.9031 36.8156L39.8438 26.7516V53.9062Z" fill="#55A38C" fill-opacity="0.7"/>
</svg>
