<svg width="70" height="70" viewBox="0 0 70 70" fill="none" xmlns="http://www.w3.org/2000/svg">
<path d="M35 1.40002C16.443 1.40002 1.40001 16.443 1.40001 35C1.40001 53.557 16.443 68.6 35 68.6C53.557 68.6 68.6 53.557 68.6 35C68.6 16.443 53.557 1.40002 35 1.40002ZM48.6675 28.924C48.6815 29.211 48.685 29.498 48.685 29.778C48.685 38.528 42.0315 48.6115 29.8585 48.6115C26.2615 48.6175 22.7394 47.5844 19.7155 45.6365C20.23 45.6995 20.7585 45.724 21.294 45.724C24.395 45.724 27.2475 44.6705 29.512 42.8925C28.132 42.8654 26.7949 42.4085 25.6869 41.5853C24.5789 40.7622 23.7554 39.6139 23.331 38.3005C24.3221 38.489 25.343 38.4495 26.3165 38.185C24.8187 37.8821 23.4717 37.0705 22.504 35.8878C21.5363 34.7052 21.0074 33.2242 21.007 31.696V31.6155C21.8995 32.109 22.9215 32.41 24.0065 32.445C22.6023 31.5103 21.6083 30.0744 21.2277 28.431C20.8471 26.7876 21.1087 25.0609 21.959 23.604C23.6213 25.648 25.6944 27.3201 28.044 28.5121C30.3936 29.7041 32.9673 30.3893 35.5985 30.5235C35.264 29.1036 35.408 27.6129 36.008 26.2833C36.6081 24.9536 37.6307 23.8595 38.9168 23.1709C40.2028 22.4824 41.6804 22.2381 43.1196 22.4759C44.5589 22.7137 45.8793 23.4204 46.8755 24.486C48.3566 24.193 49.7769 23.6497 51.0755 22.8795C50.5819 24.413 49.5484 25.7151 48.167 26.544C49.479 26.386 50.76 26.0333 51.968 25.4975C51.0807 26.8272 49.963 27.9876 48.6675 28.924Z" fill="white"/>
</svg>
