<svg width="140" height="140" viewBox="0 0 140 140" fill="none" xmlns="http://www.w3.org/2000/svg">
<g clip-path="url(#clip0)">
<path d="M37.0033 119.904L39.2919 121.036C48.8294 126.691 59.5105 129.331 70.192 129.331C103.762 129.331 131.228 102.183 131.228 69.0017C131.228 53.1655 124.743 37.706 113.299 26.3941C101.854 15.0822 86.595 8.67249 70.192 8.67249C36.6221 8.67249 9.15529 35.8206 9.53701 69.379C9.53701 80.6903 12.9703 91.6255 18.6922 101.051L20.218 103.314L14.1149 125.561L37.0033 119.904Z" fill="#00E676"/>
<path d="M119.784 20.3611C106.813 7.16432 88.8841 0 70.5731 0C31.663 0 0.381719 31.2957 0.762891 69.3784C0.762891 81.4443 4.19617 93.1335 9.91867 103.691L0 139.511L37.0032 130.085C47.303 135.741 58.747 138.381 70.192 138.381C108.721 138.381 140.002 107.084 140.002 69.0022C140.002 50.5259 132.754 33.1811 119.784 20.3611H119.784ZM70.5731 126.692C60.2733 126.692 49.9734 124.053 41.1994 118.774L38.9107 117.643L16.7852 123.298L22.5072 101.806L20.9814 99.5438C4.19617 72.773 12.2073 37.3286 39.6736 20.7378C67.1398 4.14757 102.617 12.0659 119.402 39.2141C136.187 66.3622 128.176 101.429 100.71 118.019C91.9357 123.675 81.2547 126.691 70.5731 126.691V126.692ZM104.143 84.8389L99.9469 82.9535C99.9469 82.9535 93.8437 80.3141 90.0287 78.4286C89.647 78.4286 89.2659 78.0514 88.8841 78.0514C87.7395 78.0514 86.9766 78.4286 86.2137 78.8059C86.2137 78.8059 85.8326 79.1827 80.4918 85.2157C80.1101 85.9697 79.3472 86.347 78.5843 86.347H78.2026C77.8214 86.347 77.0585 85.9697 76.6768 85.593L74.7693 84.8389C70.5731 82.9535 66.7587 80.6908 63.7066 77.6746C62.9437 76.9205 61.7991 76.1665 61.0362 75.4124C58.3658 72.773 55.6954 69.7562 53.7884 66.3627L53.4067 65.6086C53.0255 65.2313 53.0255 64.8546 52.6438 64.1005C52.6438 63.3465 52.6438 62.5924 53.0255 62.2151C53.0255 62.2151 54.5513 60.3297 55.6954 59.1989C56.4588 58.4443 56.84 57.3135 57.6029 56.5595C58.3658 55.4281 58.7475 53.92 58.3658 52.7886C57.9846 50.9032 53.4067 40.7227 52.2627 38.4605C51.4992 37.3292 50.7369 36.9524 49.5923 36.5751H45.3961C44.6327 36.5751 43.8703 36.9524 43.1069 36.9524L42.7252 37.3292C41.9623 37.7065 41.1994 38.4605 40.4365 38.8373C39.6736 39.5919 39.2919 40.3454 38.529 41.1C35.8586 44.4935 34.3328 48.6411 34.3328 52.7886C34.3328 55.8049 35.0957 58.8216 36.2403 61.4611L36.622 62.5924C40.0553 69.7562 44.6327 76.1665 50.7369 81.8222L52.2627 83.3303C53.4067 84.4616 54.5513 85.2157 55.3142 86.3465C63.3254 93.134 72.4806 98.0357 82.7805 100.675C83.9251 101.052 85.4509 101.052 86.5955 101.429H90.4099C92.3174 101.429 94.6061 100.675 96.1324 99.9211C97.2765 99.167 98.0394 99.167 98.8023 98.413L99.5657 97.6584C100.329 96.9043 101.091 96.5276 101.854 95.7735C102.617 95.0195 103.38 94.2654 103.762 93.5108C104.525 92.0027 104.906 90.1173 105.288 88.2324V85.593C105.288 85.593 104.906 85.2157 104.143 84.8389V84.8389Z" fill="white"/>
</g>
<defs>
<clipPath id="clip0">
<rect width="140" height="140" fill="white"/>
</clipPath>
</defs>
</svg>
